<?xml version="1.0" encoding="utf-8"?>
<!-- Generator: Adobe Illustrator 21.1.0, SVG Export Plug-In . SVG Version: 6.00 Build 0)  -->
<svg version="1.1" id="Calque_1" xmlns="http://www.w3.org/2000/svg" xmlns:xlink="http://www.w3.org/1999/xlink" x="0px" y="0px"
	 viewBox="0 0 504.1 377.9" style="enable-background:new 0 0 504.1 377.9;" xml:space="preserve">
<style type="text/css">
	.st0{fill:#777777;}
</style>
<path class="st0" d="M433.8,217.2c-17.6,0.1-32.9,4.3-45.7,10.6c-4.7-9.3-9.4-17.5-10.2-23.7c-0.9-7.1-2-11.4-0.9-19.9
	c1.1-8.5,6-20.5,6-21.4c-0.1-0.9-1.1-5.2-11.3-5.3s-18.9,2-19.9,4.6c-1,2.7-3,8.7-4.2,15c-1.8,9.2-20.3,42.1-30.8,59.3
	c-3.4-6.7-6.4-12.6-7-17.3c-0.9-7.1-2-11.4-0.9-19.9c1.1-8.5,6-20.5,6-21.4c-0.1-0.9-1.1-5.2-11.3-5.3c-10.2-0.1-18.9,2-19.9,4.6
	c-1,2.7-2.1,9-4.2,15c-2.1,6.1-26.7,60.9-33.1,75.1c-3.3,7.2-6.1,13.1-8.2,17c0,0,0,0,0,0s-0.1,0.3-0.3,0.7
	c-1.7,3.4-2.8,5.3-2.8,5.3s0,0,0,0.1c-1.4,2.5-2.8,4.8-3.6,4.8c-0.5,0-1.5-6.6,0.2-15.7c3.7-19,12.5-48.7,12.4-49.7
	c0-0.5,1.6-5.7-5.7-8.4c-7.2-2.6-9.7,1.8-10.4,1.8c-0.6,0-1.1,1.5-1.1,1.5s8-33.4-15.2-33.4c-14.5,0-34.6,15.9-44.6,30.3
	c-6.3,3.4-19.6,10.7-33.8,18.5c-5.5,3-11,6.1-16.3,9c-0.4-0.4-0.7-0.8-1.1-1.2c-28.2-30-80.2-51.3-78-91.7
	c0.8-14.7,5.9-53.4,100.1-100.3c77.1-38.4,138.9-27.9,149.5-4.4c15.2,33.5-33,95.7-113.1,104.7c-30.5,3.4-46.6-8.4-50.6-12.8
	c-4.2-4.6-4.8-4.8-6.4-4c-2.6,1.4-0.9,5.5,0,8c2.4,6.2,12.2,17.3,28.9,22.8c14.7,4.8,50.5,7.5,93.9-9.3
	c48.5-18.8,86.4-71,75.3-114.6c-11.3-44.4-84.9-59-154.6-34.2C119.6,26.7,74.7,49.8,42.5,80C4.1,115.9-2,147.1,0.5,160.2
	c9,46.4,72.9,76.6,98.5,99c-1.3,0.7-2.4,1.4-3.5,1.9c-12.8,6.4-61.6,31.8-73.7,58.8c-13.8,30.6,2.2,52.5,12.8,55.4
	c32.9,9.1,66.6-7.3,84.7-34.3c18.1-27,15.9-62.2,7.6-78.3c-0.1-0.2-0.2-0.4-0.3-0.6c3.3-2,6.7-4,10-5.9c6.5-3.8,12.9-7.4,18.5-10.4
	c-3.1,8.5-5.4,18.8-6.6,33.5c-1.4,17.3,5.7,39.8,15,48.6c4.1,3.9,9,4,12.1,4c10.8,0,15.8-9,21.2-19.7c6.7-13.1,12.6-28.3,12.6-28.3
	S202,325,222.3,325c7.4,0,14.8-9.6,18.1-14.4c0,0.1,0,0.1,0,0.1s0.2-0.3,0.6-1c0.8-1.2,1.2-1.9,1.2-1.9s0-0.1,0-0.2
	c3-5.1,9.5-16.9,19.4-36.2c12.7-25,25-56.3,25-56.3s1.1,7.7,4.9,20.3c2.2,7.5,6.8,15.7,10.5,23.6c-3,4.1-4.8,6.5-4.8,6.5s0,0,0,0.1
	c-2.4,3.1-5,6.5-7.8,9.8c-10,12-22,25.6-23.6,29.6c-1.9,4.6-1.4,8.1,2.2,10.8c2.7,2,7.4,2.3,12.4,2c9-0.6,15.4-2.8,18.5-4.2
	c4.9-1.7,10.6-4.4,15.9-8.4c9.9-7.3,15.8-17.6,15.2-31.4c-0.3-7.6-2.7-15.1-5.8-22.2c0.9-1.3,1.8-2.6,2.7-3.9
	c15.6-22.7,27.6-47.7,27.6-47.7s1.1,7.7,4.9,20.3c1.9,6.4,5.6,13.4,8.9,20.3c-14.6,11.9-23.7,25.7-26.8,34.7
	c-5.8,16.7-1.3,24.3,7.3,26.1c3.9,0.8,9.3-1,13.5-2.7c5.1-1.7,11.3-4.5,17-8.8c9.9-7.3,19.3-17.4,18.8-31.1
	c-0.3-6.3-2-12.5-4.3-18.4c12.4-5.2,28.4-8,48.9-5.6c43.8,5.1,52.4,32.5,50.8,44c-1.6,11.5-10.8,17.8-13.9,19.7
	c-3.1,1.9-4,2.6-3.8,4c0.4,2.1,1.8,2,4.4,1.5c3.6-0.6,23-9.3,23.9-30.5C505.1,246.4,479.4,216.9,433.8,217.2z M95.9,331.1
	c-14.5,15.8-34.8,21.8-43.5,16.8c-9.4-5.4-5.7-28.8,12.1-45.6c10.9-10.2,24.9-19.7,34.2-25.5c2.1-1.3,5.2-3.1,9-5.4
	c0.6-0.4,1-0.6,1-0.6l0,0c0.7-0.4,1.5-0.9,2.2-1.3C117.4,293.4,111.1,314.5,95.9,331.1z M201.7,259.2c-5.1,12.3-15.6,43.9-22.1,42.2
	c-5.5-1.5-8.9-25.4-1.1-49c3.9-11.9,12.3-26.1,17.2-31.6c7.9-8.9,16.7-11.8,18.8-8.2C217.2,217.1,204.9,251.4,201.7,259.2z
	 M289.1,300.9c-2.1,1.1-4.1,1.8-5,1.3c-0.7-0.4,0.9-1.9,0.9-1.9s10.9-11.8,15.2-17.1c2.5-3.1,5.4-6.8,8.6-10.9c0,0.4,0,0.8,0,1.2
	C308.8,287.5,295.2,297.1,289.1,300.9z M356.4,285.5c-1.6-1.1-1.3-4.8,3.9-16.3c2.1-4.5,6.8-12.1,15-19.3c0.9,3,1.5,5.8,1.5,8.5
	C376.7,276.2,364.1,282.8,356.4,285.5z"/>
</svg>
