<?xml version="1.0" encoding="utf-8"?>
<!-- Generator: Adobe Illustrator 21.1.0, SVG Export Plug-In . SVG Version: 6.00 Build 0)  -->
<svg version="1.1" id="Calque_1" xmlns="http://www.w3.org/2000/svg" xmlns:xlink="http://www.w3.org/1999/xlink" x="0px" y="0px"
	 viewBox="0 0 504.7 449.1" style="enable-background:new 0 0 504.7 449.1;" xml:space="preserve">
<style type="text/css">
	.st0{fill:#777777;}
</style>
<path class="st0" d="M415,145.5c-5.2-1.8-10.7-3.5-16.2-5.1c0.9-3.7,1.8-7.4,2.5-11.1C413.5,69.6,405.5,21.5,378,5.7
	c-26.3-15.2-69.4,0.6-112.9,38.5c-4.2,3.6-8.4,7.5-12.6,11.5c-2.8-2.7-5.6-5.3-8.4-7.7C198.7,7.5,153-9.5,125.5,6.4
	c-26.3,15.2-34.1,60.4-23,117c1.1,5.5,2.3,11,3.7,16.7c-6.5,1.8-12.7,3.8-18.7,5.9C34.1,164.6,0,193.8,0,224.1
	c0,31.3,36.6,62.7,92.3,81.7c4.4,1.5,8.9,2.9,13.6,4.3c-1.5,6.1-2.9,12.2-4,18c-10.6,55.6-2.3,99.7,23.9,114.9
	c27.1,15.6,72.6-0.4,116.9-39.1c3.5-3.1,7-6.3,10.5-9.7c4.6,4.4,9.1,8.5,13.6,12.4c42.9,36.9,85.3,51.8,111.5,36.6
	c27.1-15.7,35.9-63.1,24.4-120.8c-0.9-4.4-1.9-8.9-3-13.5c3.2-0.9,6.3-1.9,9.4-2.9c57.9-19.2,95.5-50.2,95.5-81.9
	C504.7,193.7,469.5,164.3,415,145.5z M279.3,60.5c37.3-32.4,72.1-45.2,88-36.1c16.9,9.7,23.5,49.1,12.9,100.6
	c-0.7,3.3-1.4,6.6-2.3,10c-20.9-4.8-43.7-8.4-67.5-10.7c-13.9-19.8-28.2-37.7-42.7-53.2C271.6,67.4,275.5,63.8,279.3,60.5z
	 M160.5,224.6c6.5-13.6,13.7-27.2,21.5-40.7l0,0c7.8-13.5,16-26.6,24.5-39c15-1.1,30.4-1.7,46-1.7c15.6,0,31,0.6,46,1.7
	c8.3,12.3,16.5,25.3,24.3,38.8c7.9,13.7,15.2,27.2,21.8,40.5c-6.6,13.5-13.8,27.2-21.7,40.9c-7.9,13.7-16,26.7-24.2,39.1
	c-15,1.1-30.5,1.6-46.2,1.6c-15.7,0-31-0.5-45.7-1.4c-8.6-12.5-16.8-25.6-24.7-39.1h0C174.2,251.8,167,238.2,160.5,224.6z M149,250
	c4.5,8.7,9.3,17.4,14.3,26.1h0c5.1,8.8,10.4,17.5,15.8,25.9c-16.5-1.8-32.1-4.3-46.5-7.5C137.1,280.1,142.6,265.2,149,250z
	 M149,199.3c-6.3-14.9-11.6-29.5-16-43.7c14.4-3.2,29.8-5.9,45.8-7.9c-5.3,8.3-10.5,16.8-15.5,25.4v0
	C158.3,181.8,153.5,190.5,149,199.3z M341.5,275.9c5.1-8.9,10-17.8,14.6-26.7c6.7,15.4,12.4,30.3,17,44.4c-14.6,3.3-30.4,6-47.1,8
	C331.2,293.3,336.4,284.8,341.5,275.9z M355.9,199.3c-4.6-8.7-9.4-17.5-14.5-26.3c-5-8.6-10.1-17-15.3-25.2c16.1,2,31.5,4.7,46,8
	C367.7,169.8,362.3,184.3,355.9,199.3z M252.6,86.5c9.9,10.8,19.9,22.8,29.7,35.9c-9.9-0.5-19.9-0.7-29.9-0.7
	c-10,0-19.9,0.2-29.7,0.7C232.5,109.5,242.5,97.4,252.6,86.5z M136.3,25c16.9-9.8,54.2,4.2,93.6,39.1c2.5,2.2,5,4.6,7.6,7
	c-14.7,15.7-29.2,33.7-43,53.2c-23.7,2.2-46.5,5.7-67.4,10.5c-1.3-5.3-2.5-10.5-3.5-15.5C114.2,70.8,120.5,34.2,136.3,25z
	 M111.7,289.3c-4.3-1.2-8.5-2.5-12.5-3.9C74.7,277,54.3,266,40.4,254.1c-12.5-10.7-18.8-21.4-18.8-30c0-18.4,27.4-41.8,73.1-57.8
	c5.5-1.9,11.3-3.8,17.4-5.5c6.3,20.5,14.6,42,24.6,63.7C126.5,246.7,118.1,268.5,111.7,289.3z M228.6,387.6
	c-19.6,17.1-39.2,29.3-56.5,35.4c-15.5,5.5-27.9,5.6-35.4,1.3c-15.9-9.2-22.5-44.6-13.5-92.2c1-5.4,2.3-11,3.7-16.8
	c20.7,4.6,43.6,7.9,68,9.8c14,19.7,28.6,37.7,43.3,53.5C235,381.8,231.8,384.8,228.6,387.6z M253.2,363.2
	c-10.2-11-20.4-23.2-30.4-36.3c9.7,0.4,19.5,0.6,29.5,0.6c10.3,0,20.5-0.2,30.5-0.7C273,340.1,263.1,352.3,253.2,363.2z
	 M384.1,393.2c-3,16.2-9.1,27-16.5,31.3c-15.9,9.2-49.9-2.8-86.6-34.3c-4.2-3.6-8.4-7.5-12.7-11.6c14.2-15.6,28.4-33.6,42.3-53.7
	c24.4-2.2,47.5-5.7,68.4-10.5c1,4.2,1.9,8.2,2.7,12.2C386.8,352.1,387.5,375.2,384.1,393.2z M402.4,285.5c-2.8,0.9-5.6,1.8-8.5,2.7
	c-6.4-20.2-15-41.7-25.6-63.9c10.1-21.7,18.4-42.9,24.6-63c5.2,1.5,10.2,3.1,15,4.7c46.7,16.1,75.2,39.9,75.2,58.2
	C483.2,243.6,452.4,268.9,402.4,285.5z"/>
<path class="st0" d="M252.4,179c24.9,0,45.1,20.2,45.1,45.1s-20.2,45.1-45.1,45.1c-24.9,0-45.1-20.2-45.1-45.1S227.5,179,252.4,179"
	/>
</svg>
