<?xml version="1.0" encoding="utf-8"?>
<!-- Generator: Adobe Illustrator 21.1.0, SVG Export Plug-In . SVG Version: 6.00 Build 0)  -->
<svg version="1.1" id="Capa_1" xmlns="http://www.w3.org/2000/svg" xmlns:xlink="http://www.w3.org/1999/xlink" x="0px" y="0px"
	 viewBox="0 0 512 512" style="enable-background:new 0 0 512 512;" xml:space="preserve">
<g>
	<path d="M512,480v32H0V0h32v480H512z M228.9,177.7l130.7,32.7l45.3-75.4l41,24.6L448,32L336.4,93.9l41,24.6l-33,55.1l-125.3-31.3
		L84.7,276.7l22.6,22.6L228.9,177.7z M192,448h64V217.5l-17.3-4.3L192,259.9V448z M96,333.3V448h64V291.9l-52.7,52.7L96,333.3z
		 M384,232v216h64V198.2l-32.2-19.3L384,232z M352,448V241.5l-64-16V448H352z"/>
</g>
</svg>
