<?xml version="1.0" encoding="utf-8"?>
<!-- Generator: Adobe Illustrator 21.1.0, SVG Export Plug-In . SVG Version: 6.00 Build 0)  -->
<svg version="1.1" id="Calque_1" xmlns="http://www.w3.org/2000/svg" xmlns:xlink="http://www.w3.org/1999/xlink" x="0px" y="0px"
	 viewBox="0 0 490 490.5" style="enable-background:new 0 0 490 490.5;" xml:space="preserve">
<style type="text/css">
	.st0{fill:#777777;}
</style>
<g>
	<path class="st0" d="M481.4,223.5L267.2,9.3c-12.3-12.3-32.3-12.3-44.7,0L178,53.7l56.4,56.4c13.1-4.4,28.2-1.5,38.6,9
		c10.5,10.5,13.5,25.7,8.9,38.8l54.4,54.4c13.2-4.5,28.3-1.6,38.8,8.9c14.7,14.7,14.7,38.5,0,53.2c-14.7,14.7-38.5,14.7-53.2,0
		c-11-11.1-13.8-27.3-8.2-40.9l-50.7-50.7v133.5c3.6,1.8,7,4.1,9.9,7.1c14.7,14.7,14.7,38.5,0,53.2c-14.7,14.7-38.5,14.7-53.2,0
		c-14.7-14.7-14.7-38.5,0-53.2c3.6-3.6,7.8-6.4,12.3-8.2V180.5c-4.5-1.8-8.7-4.6-12.3-8.2c-11.1-11.1-13.8-27.4-8.1-41.1l-55.6-55.6
		L9.3,222.5c-12.3,12.4-12.3,32.4,0,44.7l214.2,214.2c12.3,12.3,32.3,12.3,44.7,0l213.2-213.2C493.8,255.8,493.8,235.8,481.4,223.5z
		"/>
</g>
</svg>
