<?xml version="1.0" encoding="utf-8"?>
<!-- Generator: Adobe Illustrator 21.1.0, SVG Export Plug-In . SVG Version: 6.00 Build 0)  -->
<svg version="1.1" id="Capa_1" xmlns="http://www.w3.org/2000/svg" xmlns:xlink="http://www.w3.org/1999/xlink" x="0px" y="0px"
	 viewBox="0 0 253.7 469.3" style="enable-background:new 0 0 253.7 469.3;" xml:space="preserve">
<style type="text/css">
	.st0{fill:#FFFFFF;}
</style>
<g>
	<path class="st0" d="M244.2,0.1L183.3,0C114.9,0,70.8,45.3,70.8,115.5v53.3H9.6c-5.3,0-9.6,4.3-9.6,9.6v77.2c0,5.3,4.3,9.6,9.6,9.6
		h61.2v194.7c0,5.3,4.3,9.6,9.6,9.6h79.8c5.3,0,9.6-4.3,9.6-9.6V265.1h71.5c5.3,0,9.6-4.3,9.6-9.6l0-77.2c0-2.5-1-5-2.8-6.8
		c-1.8-1.8-4.2-2.8-6.8-2.8h-71.6v-45.1c0-21.7,5.2-32.7,33.4-32.7l41,0c5.3,0,9.6-4.3,9.6-9.6V9.7C253.7,4.4,249.5,0.1,244.2,0.1z"
		/>
</g>
</svg>
