<?xml version="1.0" encoding="utf-8"?>
<!-- Generator: Adobe Illustrator 21.1.0, SVG Export Plug-In . SVG Version: 6.00 Build 0)  -->
<svg version="1.1" id="Capa_1" xmlns="http://www.w3.org/2000/svg" xmlns:xlink="http://www.w3.org/1999/xlink" x="0px" y="0px"
	 viewBox="0 0 378.4 486.4" style="enable-background:new 0 0 378.4 486.4;" xml:space="preserve">
<style type="text/css">
	.st0{fill:#FFFFFF;}
</style>
<g>
	<g>
		<g>
			<path class="st0" d="M376.1,135.2C362.9,39.1,267.1-9.8,164.9,1.6C84.1,10.7,3.5,76,0.2,169.4c-2,57,14.1,99.8,68.4,111.8
				c23.5-41.6-7.6-50.7-12.4-80.8C36.2,77.4,198.2-6.7,283,79.3c58.7,59.6,20,242.8-74.6,223.7c-90.6-18.2,44.4-164-27.9-192.6
				c-58.8-23.3-90,71.1-62.1,118.1C102,309.2,66.8,385.2,81,486.4c46.2-33.6,61.8-97.7,74.6-164.7c23.2,14.1,35.7,28.8,65.3,31
				C330.1,361.2,391.1,243.7,376.1,135.2z"/>
		</g>
	</g>
</g>
</svg>
