<?xml version="1.0" encoding="utf-8"?>
<!-- Generator: Adobe Illustrator 21.1.0, SVG Export Plug-In . SVG Version: 6.00 Build 0)  -->
<svg version="1.1" id="Capa_1" xmlns="http://www.w3.org/2000/svg" xmlns:xlink="http://www.w3.org/1999/xlink" x="0px" y="0px"
	 viewBox="0 0 317.3 512" style="enable-background:new 0 0 317.3 512;" xml:space="preserve">
<style type="text/css">
	.st0{fill:#FFFFFF;}
</style>
<g>
	<g id="google">
		<path class="st0" d="M261.2,289.5l-23.7-17.3c-8.6-6.5-17.3-15.1-17.3-30.2c0-15.1,10.8-28.1,21.6-34.5
			c28.1-21.6,56.1-45.3,56.1-92.8c0-45.3-28.1-71.2-43.2-84.2h36.7l25.9-30.2H183.5C88.5,0.2,41,60.6,41,125.4
			C41,175,79.9,229,149,229h17.3c-2.2,6.5-8.6,17.3-8.6,28.1c0,21.6,8.6,30.2,19.4,43.2c-30.2,2.2-86.4,8.6-127.4,34.5
			C10.8,358.5,0,390.9,0,414.7c0,49.7,45.3,97.1,142.5,97.1c116.6,0,172.7-64.8,172.7-127.4C315.2,339.1,291.4,315.4,261.2,289.5z
			 M97.1,93c0-47.5,28.1-69.1,58.3-69.1c56.1,0,86.4,75.6,86.4,118.7c0,56.1-45.3,66.9-62.6,66.9C125.2,209.6,97.1,142.7,97.1,93z
			 M174.9,481.6c-71.2,0-116.6-32.4-116.6-79.9s43.2-62.6,56.1-69.1c28.1-8.6,64.8-10.8,71.2-10.8c6.5,0,10.8,0,15.1,0
			c51.8,36.7,73.4,51.8,73.4,86.4C274.2,449.2,233.1,481.6,174.9,481.6z"/>
	</g>
</g>
</svg>
