<?xml version="1.0" encoding="utf-8"?>
<!-- Generator: Adobe Illustrator 21.1.0, SVG Export Plug-In . SVG Version: 6.00 Build 0)  -->
<svg version="1.1" id="Calque_1" xmlns="http://www.w3.org/2000/svg" xmlns:xlink="http://www.w3.org/1999/xlink" x="0px" y="0px"
	 viewBox="0 0 504.8 410" style="enable-background:new 0 0 504.8 410;" xml:space="preserve">
<style type="text/css">
	.st0{fill:#FFFFFF;}
</style>
<g>
	<g>
		<path class="st0" d="M504.8,48.5c-18.6,8.2-38.5,13.8-59.5,16.3c21.4-12.8,37.8-33.1,45.5-57.3C470.8,19.4,448.6,28,425,32.7
			C406.1,12.6,379.3,0,349.5,0c-57.2,0-103.6,46.4-103.6,103.5c0,8.1,0.9,16,2.7,23.6c-86-4.3-162.3-45.5-213.4-108.2
			c-8.9,15.3-14,33.1-14,52c0,35.9,18.3,67.6,46.1,86.2c-17-0.6-32.9-5.2-46.9-13v1.3c0,50.2,35.7,92,83.1,101.5
			c-8.7,2.3-17.8,3.6-27.3,3.6c-6.7,0-13.2-0.7-19.5-1.9c13.2,41.2,51.4,71.1,96.7,71.9c-35.4,27.8-80.1,44.3-128.6,44.3
			c-8.4,0-16.6-0.5-24.7-1.4C45.8,392.9,100.2,410,158.7,410c190.5,0,294.6-157.8,294.6-294.6L453,102
			C473.3,87.5,490.9,69.3,504.8,48.5z"/>
	</g>
</g>
</svg>
