<?xml version="1.0" encoding="utf-8"?>
<!-- Generator: Adobe Illustrator 21.1.0, SVG Export Plug-In . SVG Version: 6.00 Build 0)  -->
<svg version="1.1" id="Capa_1" xmlns="http://www.w3.org/2000/svg" xmlns:xlink="http://www.w3.org/1999/xlink" x="0px" y="0px"
	 viewBox="0 0 500.2 327.1" style="enable-background:new 0 0 500.2 327.1;" xml:space="preserve">
<g>
	<g id="Layer_20_51_">
		<g>
			<polygon points="157.9,249.6 227.7,249.6 227.7,265.7 157.9,265.7 157.9,278.9 377.3,278.9 377.3,265.7 296,265.7 296,249.6 
				386.4,249.6 386.4,212.8 157.9,212.8 			"/>
			<polygon points="97.2,28.5 429.8,28.5 429.8,161.4 458.2,161.4 458.2,0 68.7,0 68.7,89 97.2,89 			"/>
			<path d="M0,321.1h148.8V98H0V321.1z M77.5,309.9c-4,0-7.2-3.2-7.2-7.2c0-4,3.2-7.2,7.2-7.2c4,0,7.2,3.2,7.2,7.2
				S81.5,309.9,77.5,309.9z M21.5,119.5h105.8l0,164.6H21.5L21.5,119.5L21.5,119.5z"/>
			<path d="M396.5,170v157.1h103.6V170H396.5z M450.5,176.5c1.2,0,2.3,1,2.3,2.3c0,1.2-1,2.3-2.3,2.3c-1.3,0-2.3-1-2.3-2.3
				C448.2,177.5,449.2,176.5,450.5,176.5z M437,184h26.9v2.2H437V184z M449.6,320.3c-3,0-5.4-2.4-5.4-5.4c0-3,2.4-5.4,5.4-5.4
				c3,0,5.4,2.4,5.4,5.4C454.9,317.9,452.5,320.3,449.6,320.3z M485.2,301.8c-24.3,0.1-61.6,0.2-73.6,0.1v-108l73.6,0V301.8z"/>
		</g>
	</g>
</g>
</svg>
